<svg xmlns="http://www.w3.org/2000/svg" version="1.1"><polyline points="185.5,28.0,179.5,32.0,170.5,36.0,162.5,40.5,156.0,44.5,149.5,49.0,146.0,53.0,141.5,57.0,138.0,61.0,133.5,65.0,128.5,69.0,130.5,71.0,127.5,75.5,123.0,79.5,121.0,83.5,120.0,87.5,122.0,91.5" stroke="black" stroke-width="2" fill="none" />
<polyline points="120.5,84.0,124.5,78.0,128.5,74.0,128.5,69.5,132.5,66.5,136.0,62.5,140.0,58.0,144.0,54.0,148.0,50.5,152.0,47.0,156.0,44.0,159.5,42.0,163.5,40.0,167.0,38.5,171.5,37.5,175.5,35.5,180.0,33.0,184.5,30.5,188.5,29.0,192.5,27.0,196.5,25.0" stroke="black" stroke-width="2" fill="none" />
<polyline points="202.0,39.0,206.0,38.0,210.5,38.0,214.0,37.5,218.0,37.0,222.0,37.0,226.0,37.0,229.5,37.0" stroke="black" stroke-width="2" fill="none" />
<polyline points="218.0,66.5,213.0,70.5,215.0,74.5,215.5,68.0,219.0,67.0" stroke="black" stroke-width="2" fill="none" />
<polyline points="165.0,64.0,169.0,58.0,173.0,53.5,177.0,50.0,173.0,54.0,170.0,58.0,166.5,61.5,165.5,65.5,164.0,69.5" stroke="black" stroke-width="2" fill="none" />
<polyline points="156.0,56.0,151.5,59.5,148.5,62.0,152.0,58.0,156.5,54.0" stroke="black" stroke-width="2" fill="none" />
<polyline points="161.5,43.5,155.5,48.0,150.0,52.0,147.0,56.5,146.0,57.0,150.0,53.0,154.0,50.0,158.5,47.0,163.0,45.0,166.5,43.0,170.5,41.5" stroke="black" stroke-width="2" fill="none" />
<polyline points="113.0,105.5,108.0,110.0,106.5,114.0,105.5,118.0,104.0,121.5,103.0,125.5,103.0,132.5,104.0,137.0,105.5,141.5,105.0,145.5,103.5,149.5,103.5,153.5,103.5,157.5,104.5,162.0,103.0,166.5,103.5,170.5,104.0,174.5,105.0,178.0,105.0,181.5,105.5,185.5,106.5,189.5,107.0,193.5,107.5,197.5,109.0,201.5,110.0,205.5,111.5,209.5,112.0,213.0,113.5,217.5,114.0,221.5,115.5,226.0,118.0,230.0,114.5,234.0,112.5,237.5,112.0,241.5,112.0,245.0,111.0,248.5,112.0,252.5,112.0,256.5,112.0,260.5,112.5,264.0,114.0,267.5,115.5,271.5,117.0,275.5,117.5,280.0,117.5,284.5,118.0,289.0,119.5,293.0,119.5,297.0,120.5,301.0,121.5,305.0,124.0,309.5,127.5,313.0,133.0,317.5" stroke="black" stroke-width="2" fill="none" />
<polyline points="122.5,305.5,126.5,311.0,130.5,316.0,134.5,318.5,139.0,319.0,143.0,319.5,147.0,319.5,150.5,319.0,154.5,325.5" stroke="black" stroke-width="2" fill="none" />
<polyline points="149.0,304.0,149.5,308.0,151.0,311.5,151.0,315.0,153.0,321.5,154.5,325.5,156.0,329.0,156.5,333.0,158.0,337.5,159.0,342.0,161.0,346.0,162.5,350.0,163.5,354.0,165.5,358.0,167.0,362.0,167.5,366.5,168.5,370.5,170.5,374.5,170.5,378.5,171.0,382.5,173.0,386.5,172.0,390.5,172.5,394.5,173.5,398.5,173.5,402.5,173.5,406.5,173.5,410.5,174.5,414.5,174.0,418.5,170.0,422.5,162.0,426.0" stroke="black" stroke-width="2" fill="none" />
<polyline points="175.0,419.0,170.5,422.5,166.5,424.5,162.5,426.5,158.0,428.0,154.0,428.5,150.0,429.5,146.0,431.5,142.0,434.0,138.0,434.5,134.0,435.5,129.5,436.5,125.5,438.0,121.5,439.5,118.0,441.0,114.0,442.5,110.0,443.5,106.0,444.5,101.5,445.5,97.5,447.0,93.5,447.0,90.0,448.5,86.0,449.0,82.0,450.5,78.0,451.0,74.0,452.5,70.0,452.5,66.5,454.0,62.0,455.0,58.0,456.5,54.0,457.0,50.0,458.0,46.0,459.5,42.0,460.0,38.0,461.5,34.0,462.5,30.0,463.0,26.0,463.0,22.0,463.5,18.0,463.5,14.5,465.0,10.5,467.0,7.0,470.0,3.0,473.0,6.5,470.0,11.5,466.0,17.5,462.0" stroke="black" stroke-width="2" fill="none" />
<polyline points="138.5,254.0,139.0,258.0,140.5,262.0,140.5,265.5,136.5,269.5,135.0,273.5,134.5,277.5,135.0,282.0" stroke="black" stroke-width="2" fill="none" />
<polyline points="119.0,266.5,119.5,262.5,120.0,258.5,120.0,255.0,121.0,251.0,122.5,247.0,123.5,243.0,122.5,246.0" stroke="black" stroke-width="2" fill="none" />
<polyline points="115.5,241.5,114.5,245.5,114.0,249.5,114.0,253.5,114.0,257.5,113.5,261.5,114.5,269.5" stroke="black" stroke-width="2" fill="none" />
<polyline points="114.5,234.0,118.0,229.5,122.0,229.5,126.0,233.0,130.0,235.0" stroke="black" stroke-width="2" fill="none" />
<polyline points="126.0,229.0,130.0,228.5,135.0,223.5,139.5,222.0,143.5,221.0,147.5,220.0,151.5,219.0,155.0,217.0,159.0,216.5,163.5,214.5,167.5,213.5,171.5,211.5,176.0,211.5,180.0,211.5,184.0,208.0,188.0,206.0,192.5,204.5,196.5,204.0,200.5,202.5,204.5,201.0" stroke="black" stroke-width="2" fill="none" />
<polyline points="203.0,199.0,195.5,203.5,187.0,206.0,181.5,210.0" stroke="black" stroke-width="2" fill="none" />
<polyline points="174.5,217.5,170.5,218.0,166.5,220.0,162.5,221.5,158.5,225.0,155.0,231.0" stroke="black" stroke-width="2" fill="none" />
<polyline points="137.5,222.5,135.0,226.5,134.5,230.5,136.0,234.0,140.0,235.0,144.5,237.5,148.5,245.0,152.0,246.5" stroke="black" stroke-width="2" fill="none" />
<polyline points="154.5,249.0,155.0,245.0,155.0,240.5,154.5,236.5,155.0,232.5,156.5,228.5,160.0,224.5,166.0,220.5" stroke="black" stroke-width="2" fill="none" />
<polyline points="245.5,226.0,241.5,230.5,239.0,235.5,241.5,231.0,244.5,227.0,242.5,222.5,238.5,218.5" stroke="black" stroke-width="2" fill="none" />
<polyline points="228.5,215.5,232.5,216.0,236.5,217.5,241.0,220.0,244.5,223.0,249.5,220.5,253.5,222.0" stroke="black" stroke-width="2" fill="none" />
<polyline points="234.5,285.0,232.5,288.5,231.0,292.5,231.0,296.5,231.0,300.5" stroke="black" stroke-width="2" fill="none" />
<polyline points="244.5,296.0,241.5,300.0,245.5,296.5,250.0,297.5,254.0,300.0" stroke="black" stroke-width="2" fill="none" />
<polyline points="354.0,371.5,354.0,375.5,353.0,379.5,353.0,384.0,353.0,388.0,353.0,392.5,353.5,395.5,353.5,399.5,355.5,403.0,356.5,406.5,357.0,410.5,360.5,414.5,364.5,419.0,374.0,423.0,384.0,427.0,391.0,431.0,393.5,435.0,394.5,439.5" stroke="black" stroke-width="2" fill="none" />
<polyline points="393.5,436.5,389.5,431.0,385.5,428.5,381.0,426.5,377.0,424.5,373.5,423.5,369.5,421.5,366.0,420.0,362.0,416.5,358.5,411.5" stroke="black" stroke-width="2" fill="none" />
<polyline points="364.5,309.5,368.5,309.5,372.5,308.0,376.0,304.0,380.0,299.5" stroke="black" stroke-width="2" fill="none" />
<polyline points="371.5,308.0,376.5,304.0,380.0,299.5,382.0,295.5,382.0,291.5,382.0,287.5,383.0,283.5,383.5,280.0,383.5,276.0,383.0,272.0" stroke="black" stroke-width="2" fill="none" />
<polyline points="351.5,266.5,349.0,270.5,345.0,274.5,340.0,274.5,344.0,271.0,348.0,267.0" stroke="black" stroke-width="2" fill="none" />
<polyline points="349.0,266.5,345.5,270.5,340.5,274.5,346.0,274.5,349.5,271.0" stroke="black" stroke-width="2" fill="none" />
<polyline points="383.0,129.0,379.0,121.5,375.0,115.0,371.0,105.5,366.5,100.5,362.5,94.5,358.5,89.5,354.5,84.5,351.0,80.0,347.0,77.5,343.0,74.0" stroke="black" stroke-width="2" fill="none" />
<polyline points="342.5,73.5,347.0,77.5,351.0,81.5,355.0,85.5,358.0,90.0,362.0,94.0,364.5,98.5,367.0,102.5,370.5,106.5,372.0,112.5,374.0,116.5,377.0,120.5,379.0,124.0,380.5,128.0,382.5,132.0" stroke="black" stroke-width="2" fill="none" />
<polyline points="110.0,108.5,106.0,115.5,101.5,125.0" stroke="black" stroke-width="2" fill="none" />
<polyline points="120.5,228.5,124.0,232.5,128.0,238.5,129.5,242.0,130.5,246.5,132.0,251.5,132.5,256.0,126.5,260.0,125.0,264.0,125.0,268.0" stroke="black" stroke-width="2" fill="none" />
</svg>