<svg xmlns="http://www.w3.org/2000/svg" version="1.1"><polyline points="184.0,27.5,178.0,32.0,169.5,36.0,161.0,40.0,155.0,44.0,149.5,48.5,146.0,52.5,141.5,57.0,138.5,61.0,134.0,65.0,129.0,69.0,131.0,71.0,128.0,75.0,123.5,79.0,121.5,83.0,121.0,87.5,123.0,91.0" stroke="black" stroke-width="2" fill="none" />
<polyline points="121.0,84.0,125.0,78.0,129.0,73.5,129.0,69.0,133.0,66.0,137.0,62.5,141.0,57.5,145.0,53.0,149.0,50.0,153.0,46.5,157.5,44.0,161.0,41.5,165.0,39.5,169.0,38.0,173.0,36.5,177.0,34.0,181.0,31.5,185.0,29.0,189.0,27.5,193.5,26.0,197.5,24.0" stroke="black" stroke-width="2" fill="none" />
<polyline points="202.0,38.5,206.0,38.0,210.0,37.5,214.0,37.0,217.5,37.0,221.5,36.5,225.5,36.5,229.5,36.5" stroke="black" stroke-width="2" fill="none" />
<polyline points="219.0,66.5,215.0,68.0,213.5,74.5,211.5,70.0,216.5,66.0" stroke="black" stroke-width="2" fill="none" />
<polyline points="166.5,66.0,170.5,60.0,174.5,55.5,178.5,52.0,174.5,55.0,171.0,58.5,168.0,62.5,166.5,65.5,165.0,69.0" stroke="black" stroke-width="2" fill="none" />
<polyline points="156.0,55.0,152.0,58.5,148.5,61.0,152.5,57.0,157.0,53.0" stroke="black" stroke-width="2" fill="none" />
<polyline points="160.5,44.0,154.5,48.0,149.0,52.0,146.0,56.5,145.0,57.0,149.5,52.5,153.5,49.5,158.0,47.0,163.0,45.0,167.0,42.5,171.5,41.0" stroke="black" stroke-width="2" fill="none" />
<polyline points="113.0,106.0,108.0,110.0,106.5,114.0,105.0,118.0,103.5,122.0,102.5,126.0,102.5,132.5,103.0,137.0,104.5,141.5,104.5,146.0,103.0,150.0,102.5,154.0,103.0,158.0,104.0,161.5,103.5,165.0,104.5,169.5,105.0,173.0,106.5,177.5,106.5,181.5,107.5,186.0,109.0,190.0,109.0,194.0,109.0,198.0,110.5,202.0,110.5,206.0,112.0,210.5,112.5,214.0,114.0,217.5,114.5,221.0,115.5,225.0,118.0,229.0,114.5,233.0,112.5,237.0,112.0,241.0,111.5,245.0,110.5,249.0,111.5,252.5,111.5,256.5,112.0,260.0,112.5,263.5,114.5,267.5,116.5,272.0,117.5,276.0,118.0,280.5,117.5,284.5,117.5,289.0,119.0,293.0,119.0,297.5,120.0,301.5,120.5,305.5,123.0,309.5,126.5,313.5,132.0,317.5" stroke="black" stroke-width="2" fill="none" />
<polyline points="122.5,304.0,126.5,310.0,130.5,315.0,134.0,317.0,138.5,318.5,142.0,318.5,146.0,319.5,150.0,319.0,154.0,325.5" stroke="black" stroke-width="2" fill="none" />
<polyline points="149.0,303.5,149.0,307.5,150.5,312.0,151.0,316.0,153.0,322.5,154.5,326.0,156.0,330.0,157.0,334.0,158.5,338.0,158.5,342.0,160.5,346.0,162.0,350.0,162.5,353.5,164.0,357.5,165.0,361.5,165.5,366.0,166.0,370.0,168.0,374.5,168.5,378.5,169.0,383.0,170.5,387.0,170.5,391.0,171.5,395.0,172.5,399.0,173.0,402.5,173.0,406.5,173.0,411.0,174.0,415.0,174.0,419.0,170.0,423.0,162.5,427.0" stroke="black" stroke-width="2" fill="none" />
<polyline points="174.0,419.5,169.5,423.0,165.5,425.0,162.0,427.0,158.0,429.0,153.5,430.0,149.5,431.0,145.5,433.0,141.5,435.0,137.5,435.5,133.0,437.0,128.5,437.5,125.0,438.5,121.0,439.5,117.5,440.5,113.5,442.0,109.5,442.5,105.5,444.0,101.5,444.5,97.5,446.0,94.0,446.5,90.0,448.0,85.5,448.5,81.0,450.0,77.0,451.0,73.0,453.0,69.0,453.0,65.5,454.5,61.5,455.0,57.5,456.5,54.0,457.5,50.0,458.0,46.5,459.0,43.0,459.0,39.0,460.0,35.5,460.0,31.0,460.5,27.5,460.5,23.0,462.0,19.0,462.0,15.5,464.0,11.5,466.0,7.0,469.0,3.0,472.0,6.0,469.5,11.0,466.0,17.5,462.0" stroke="black" stroke-width="2" fill="none" />
<polyline points="138.5,254.0,138.5,258.0,140.5,262.0,140.5,266.0,136.5,269.5,135.0,273.5,134.5,278.0,134.5,282.5" stroke="black" stroke-width="2" fill="none" />
<polyline points="120.0,267.0,120.5,263.0,120.5,259.0,120.5,255.0,121.5,251.0,123.0,247.0,124.5,242.5,123.5,245.5" stroke="black" stroke-width="2" fill="none" />
<polyline points="115.0,241.0,114.0,245.0,114.5,249.0,114.5,253.0,115.0,257.0,114.5,261.5,116.0,269.0" stroke="black" stroke-width="2" fill="none" />
<polyline points="131.0,235.0,127.0,232.0,123.0,228.0,119.0,227.5,114.5,231.5" stroke="black" stroke-width="2" fill="none" />
<polyline points="120.5,228.0,124.5,232.0,128.5,237.5,130.0,241.5,131.0,245.5,131.5,251.0,132.0,254.5,125.5,258.5,124.0,262.0,124.0,266.0" stroke="black" stroke-width="2" fill="none" />
<polyline points="125.5,228.0,129.5,227.5,135.0,222.5,139.0,221.5,143.5,220.0,147.5,219.5,151.5,218.0,155.0,216.5,159.0,216.0,163.0,214.5,167.0,213.5,171.0,212.0,175.0,212.0,179.0,211.5,183.5,207.5,187.5,205.0,191.5,203.5,195.5,203.0,199.0,201.5,202.5,199.5" stroke="black" stroke-width="2" fill="none" />
<polyline points="204.0,199.0,196.0,203.0,187.0,206.5,181.5,210.0" stroke="black" stroke-width="2" fill="none" />
<polyline points="176.0,217.5,171.5,218.5,167.5,220.5,163.5,222.0,160.0,225.0,156.0,231.0" stroke="black" stroke-width="2" fill="none" />
<polyline points="165.0,220.5,159.5,224.5,156.0,228.0,154.5,232.0,154.0,236.0,154.0,240.0,153.5,244.5,153.5,248.5" stroke="black" stroke-width="2" fill="none" />
<polyline points="137.5,222.5,135.0,226.5,135.0,230.5,136.5,234.0,140.0,235.0,143.5,237.0,147.5,245.0,152.0,246.0" stroke="black" stroke-width="2" fill="none" />
<polyline points="228.5,214.5,232.0,215.5,236.0,216.5,239.5,219.0,244.0,221.5,249.0,219.0,253.0,220.5" stroke="black" stroke-width="2" fill="none" />
<polyline points="246.5,226.0,243.0,230.5,240.0,235.0,242.5,230.5,245.0,226.5,243.0,222.0,239.0,218.5" stroke="black" stroke-width="2" fill="none" />
<polyline points="234.0,284.0,232.0,288.0,230.0,292.0,230.0,296.0,230.0,300.0" stroke="black" stroke-width="2" fill="none" />
<polyline points="245.0,295.5,242.0,299.5,245.5,296.5,249.0,297.5,253.0,300.5" stroke="black" stroke-width="2" fill="none" />
<polyline points="352.5,371.0,352.5,375.5,352.0,380.0,352.5,384.0,352.5,388.0,352.5,392.0,353.0,395.5,353.0,399.0,354.5,402.5,356.0,406.5,356.5,410.0,360.0,414.5,364.0,419.0,373.5,423.0,383.0,427.5,389.5,432.0,393.0,436.0,394.5,440.0" stroke="black" stroke-width="2" fill="none" />
<polyline points="394.0,437.5,390.0,431.5,385.5,428.5,381.0,426.5,376.5,424.5,372.5,422.5,368.5,421.0,364.5,419.0,360.5,415.0,356.5,410.5" stroke="black" stroke-width="2" fill="none" />
<polyline points="362.5,308.5,366.5,308.0,370.5,306.5,374.5,303.0,378.5,298.5" stroke="black" stroke-width="2" fill="none" />
<polyline points="369.5,307.0,374.5,303.0,378.0,298.5,379.5,294.5,380.0,290.5,380.0,287.0,381.5,283.0,382.5,279.0,382.5,275.0,382.0,271.0" stroke="black" stroke-width="2" fill="none" />
<polyline points="353.0,266.0,350.5,270.0,346.0,273.5,341.0,273.5,344.5,270.5,348.5,266.5" stroke="black" stroke-width="2" fill="none" />
<polyline points="349.5,267.0,345.5,271.0,340.0,275.0,345.0,275.0,349.0,271.5" stroke="black" stroke-width="2" fill="none" />
<polyline points="383.5,130.0,379.5,122.5,375.0,116.0,371.0,106.5,367.0,101.5,362.5,95.5,358.5,90.5,354.5,84.5,350.0,80.0,346.0,77.0,341.5,73.5" stroke="black" stroke-width="2" fill="none" />
<polyline points="342.5,73.0,346.5,77.0,350.5,81.0,354.5,85.0,358.0,89.5,361.5,93.5,364.5,97.5,366.5,101.5,370.0,106.0,371.5,111.5,373.5,115.5,377.0,119.5,379.0,123.0,381.0,127.0,384.0,131.5" stroke="black" stroke-width="2" fill="none" />
<polyline points="111.0,107.5,106.5,115.0,102.5,124.5" stroke="black" stroke-width="2" fill="none" />
</svg>