<svg xmlns="http://www.w3.org/2000/svg" version="1.1"><polyline points="22.0,1.5,22.0,13.5,22.0,25.5,23.5,38.0,23.5,49.5,23.5,61.5" stroke="black" stroke-width="2" fill="none" />
<polyline points="14.5,70.5,2.0,70.5" stroke="black" stroke-width="2" fill="none" />
<polyline points="4.0,69.5,4.0,81.5,5.0,99.0,6.5,111.0,9.0,122.5,13.5,134.5" stroke="black" stroke-width="2" fill="none" />
<polyline points="13.0,120.5,11.5,101.5,15.0,92.5,3.0,94.0" stroke="black" stroke-width="2" fill="none" />
<polyline points="5.5,79.5,17.0,79.5,29.0,81.0,27.5,93.0,27.0,104.5,27.0,116.5,28.5,128.5,28.5,140.5,30.5,152.0,32.0,164.0,42.5,171.5,54.5,173.0,66.5,171.0,78.5,166.5,90.5,163.5,104.0,157.5,116.0,160.5,128.0,150.0,131.0,138.5" stroke="black" stroke-width="2" fill="none" />
<polyline points="134.0,151.5,149.0,145.5,161.0,129.0,173.0,119.5" stroke="black" stroke-width="2" fill="none" />
<polyline points="182.5,114.5,164.5,126.5,155.0,138.5,149.0,150.5,143.0,162.5,138.5,174.5,136.5,185.0,130.0,196.5,136.0,202.5,139.0,214.5,139.0,226.5,155.5,223.5,168.0,216.5,180.0,213.5,192.5,210.5,204.0,210.5,216.5,213.5,228.5,216.0,231.0,225.0,232.5,240.0,247.5,229.5,259.5,227.5,271.5,220.5,277.5,208.5,289.0,207.5,301.0,205.5,313.0,204.5,325.5,204.5,337.5,206.0,350.0,212.0,362.0,215.0" stroke="black" stroke-width="2" fill="none" />
<polyline points="353.0,221.5,362.0,233.5,357.0,237.5,360.0,249.5,363.0,258.5,361.0,270.5,350.5,283.0,340.0,295.0" stroke="black" stroke-width="2" fill="none" />
<polyline points="320.0,299.0,308.0,299.0" stroke="black" stroke-width="2" fill="none" />
<polyline points="280.5,277.0,293.0,288.0,305.0,292.5,317.5,294.5,329.5,293.0,341.5,290.0,353.5,280.0" stroke="black" stroke-width="2" fill="none" />
<polyline points="375.0,289.5,378.5,277.5,383.0,265.5,383.0,253.0,383.0,241.0,393.5,235.0,381.5,243.5" stroke="black" stroke-width="2" fill="none" />
<polyline points="388.5,244.5,388.5,244.5,390.0,256.5,397.0,265.5,396.5,278.0,396.0,290.0,394.5,302.0,390.0,314.0" stroke="black" stroke-width="2" fill="none" />
<polyline points="390.0,314.0,378.5,320.5,366.5,313.0,367.0,301.0" stroke="black" stroke-width="2" fill="none" />
<polyline points="336.5,331.5,339.5,343.5" stroke="black" stroke-width="2" fill="none" />
<polyline points="368.0,360.5,357.5,396.5,357.5,398.0,360.5,386.0,364.5,374.5,367.5,362.5,367.0,350.0,368.5,337.5,371.5,325.5,376.0,304.5,381.5,292.5,380.0,280.5,385.0,277.5,374.5,271.5,374.5,259.5,373.0,247.5,365.5,238.5,354.5,234.0,342.0,228.0,330.0,225.0,318.0,225.0" stroke="black" stroke-width="2" fill="none" />
<polyline points="311.0,229.5,294.0,241.5,298.0,232.5,314.0,243.0,334.5,246.0" stroke="black" stroke-width="2" fill="none" />
<polyline points="323.0,258.5,311.0,260.0" stroke="black" stroke-width="2" fill="none" />
<polyline points="326.0,228.5,323.0,212.0,311.0,217.0,299.0,218.5,287.0,220.0" stroke="black" stroke-width="2" fill="none" />
<polyline points="293.5,213.0,305.0,211.0" stroke="black" stroke-width="2" fill="none" />
<polyline points="282.0,210.5,274.5,222.0,283.0,231.0,285.5,249.5,296.0,239.5,305.5,233.5,317.5,232.0,329.5,233.5,341.5,237.5" stroke="black" stroke-width="2" fill="none" />
<polyline points="341.0,216.0,353.0,218.5,365.0,229.0" stroke="black" stroke-width="2" fill="none" />
<polyline points="367.0,210.5,367.0,198.5" stroke="black" stroke-width="2" fill="none" />
<polyline points="410.5,175.5,422.5,172.5,437.5,174.0" stroke="black" stroke-width="2" fill="none" />
<polyline points="437.0,153.5,431.0,165.5,450.5,173.0,462.5,173.0,483.5,171.0,498.5,169.5,510.0,170.0" stroke="black" stroke-width="2" fill="none" />
<polyline points="512.5,144.0,512.5,132.0,512.0,120.0,509.0,108.5" stroke="black" stroke-width="2" fill="none" />
<polyline points="507.5,116.5,507.5,119.0,506.0,133.0" stroke="black" stroke-width="2" fill="none" />
<polyline points="496.5,134.0,493.0,122.5" stroke="black" stroke-width="2" fill="none" />
<polyline points="492.5,88.5,480.5,81.0" stroke="black" stroke-width="2" fill="none" />
<polyline points="481.5,80.0,490.5,92.0,484.0,104.5,483.0,117.0,486.0,129.5,496.5,141.5" stroke="black" stroke-width="2" fill="none" />
<polyline points="479.5,100.0,467.5,82.0" stroke="black" stroke-width="2" fill="none" />
<polyline points="467.0,81.0,474.5,93.5,479.5,111.5" stroke="black" stroke-width="2" fill="none" />
<polyline points="459.5,93.5,471.5,99.5,473.0,117.5,475.5,129.0,482.0,141.0,485.0,153.0,477.5,171.0,489.0,162.0,501.0,162.5,511.5,173.0,511.0,185.0,511.5,197.0,512.0,208.5,512.5,220.5,512.5,232.5,513.0,244.5,508.5,258.0,513.5,268.5,513.5,280.5,513.5,293.0,513.5,303.5,513.5,315.5,513.0,327.5,513.0,335.0,513.0,345.0,513.0,357.0,513.0,369.0,512.5,380.0,512.0,391.0,510.0,403.5,507.0,415.5,501.0,415.5,491.0,421.5,489.5,436.0,501.5,431.5" stroke="black" stroke-width="2" fill="none" />
<polyline points="499.0,424.5,511.0,424.5" stroke="black" stroke-width="2" fill="none" />
<polyline points="511.5,444.0,511.0,456.0,511.0,468.0,511.0,480.0,511.0,492.0" stroke="black" stroke-width="2" fill="none" />
<polyline points="466.0,452.0,475.0,440.0" stroke="black" stroke-width="2" fill="none" />
<polyline points="476.5,437.0,464.5,435.5,463.0,429.5,463.0,423.5" stroke="black" stroke-width="2" fill="none" />
<polyline points="460.5,411.5,461.0,401.0,456.5,395.0,456.5,383.0,454.5,392.0" stroke="black" stroke-width="2" fill="none" />
<polyline points="458.5,403.5,452.5,415.5,464.5,402.0" stroke="black" stroke-width="2" fill="none" />
<polyline points="414.5,435.0,416.5,426.5,404.0,425.5" stroke="black" stroke-width="2" fill="none" />
<polyline points="403.0,450.0,391.5,443.5,379.5,439.0,367.5,425.5" stroke="black" stroke-width="2" fill="none" />
<polyline points="349.0,418.5,338.5,430.5,328.5,443.0,316.5,455.0,317.0,455.0,328.5,443.0,341.0,429.5" stroke="black" stroke-width="2" fill="none" />
<polyline points="324.0,465.5,312.5,466.5,300.0,469.0,288.0,467.5,276.0,467.5,264.0,467.0,251.0,465.5,222.5,456.5,209.0,444.5,199.0,433.0,194.5,421.0" stroke="black" stroke-width="2" fill="none" />
<polyline points="214.0,437.0,226.5,449.0,239.0,457.5,251.0,459.5,263.0,461.0,275.5,461.5,287.5,460.0,299.0,456.0" stroke="black" stroke-width="2" fill="none" />
<polyline points="277.0,410.5,265.0,410.5,253.0,409.0" stroke="black" stroke-width="2" fill="none" />
<polyline points="244.5,408.0,256.5,404.0,268.5,402.5,280.0,401.0,293.0,408.5" stroke="black" stroke-width="2" fill="none" />
<polyline points="335.5,411.5,324.0,431.0,312.5,448.5,296.5,457.0,316.0,445.0,325.5,433.0,331.5,420.5,339.0,408.5,346.0,396.0,347.5,384.0" stroke="black" stroke-width="2" fill="none" />
<polyline points="365.0,392.0,365.0,404.5,365.0,416.5,368.0,428.5,379.0,440.5,398.5,452.5,407.5,463.0,394.0,475.0,380.5,487.0,366.5,499.5,350.0,511.5" stroke="black" stroke-width="2" fill="none" />
<polyline points="397.5,472.5,385.5,483.0,374.0,492.0,362.0,504.0,350.0,511.0,338.0,512.5,326.0,512.5,314.0,512.0,302.0,512.0,290.0,512.0,278.0,511.5,266.0,511.5,254.0,511.5,242.0,511.5,230.0,511.5,218.0,504.0,206.0,491.0,194.0,471.5" stroke="black" stroke-width="2" fill="none" />
<polyline points="177.5,471.5,189.5,464.0,192.5,475.5,198.5,487.5,209.0,499.5" stroke="black" stroke-width="2" fill="none" />
<polyline points="207.5,512.5,196.0,512.5,184.0,497.5" stroke="black" stroke-width="2" fill="none" />
<polyline points="182.0,513.0,169.5,513.0,157.5,513.0,145.5,513.0" stroke="black" stroke-width="2" fill="none" />
<polyline points="88.0,483.5,74.5,495.5,63.0,509.0" stroke="black" stroke-width="2" fill="none" />
<polyline points="68.5,491.0,70.0,479.0" stroke="black" stroke-width="2" fill="none" />
<polyline points="66.0,477.0,60.0,489.0,64.5,478.5" stroke="black" stroke-width="2" fill="none" />
<polyline points="112.5,428.5,103.5,440.5,115.0,428.5" stroke="black" stroke-width="2" fill="none" />
<polyline points="150.0,439.5,162.0,439.5,178.5,438.0" stroke="black" stroke-width="2" fill="none" />
<polyline points="214.5,436.5,223.0,448.5,243.0,460.5" stroke="black" stroke-width="2" fill="none" />
<polyline points="230.5,458.0,218.5,451.0,206.5,440.5,194.5,427.0,185.5,410.5,173.5,394.5,161.5,366.0" stroke="black" stroke-width="2" fill="none" />
<polyline points="144.0,401.0,145.5,399.5,144.0,411.0,142.5,421.5" stroke="black" stroke-width="2" fill="none" />
<polyline points="116.5,361.5,118.0,358.5,111.5,352.0,111.5,352.0" stroke="black" stroke-width="2" fill="none" />
<polyline points="93.0,333.5,105.5,323.0" stroke="black" stroke-width="2" fill="none" />
<polyline points="91.0,308.0,90.5,310.0,99.5,311.5,97.0,299.5" stroke="black" stroke-width="2" fill="none" />
<polyline points="128.5,263.0,133.0,269.0,134.5,274.0,133.0,284.5,140.5,290.5,140.5,303.0,147.0,302.5" stroke="black" stroke-width="2" fill="none" />
<polyline points="157.0,291.0,173.5,303.0" stroke="black" stroke-width="2" fill="none" />
<polyline points="150.0,334.0,138.0,327.0" stroke="black" stroke-width="2" fill="none" />
<polyline points="145.5,272.0,157.5,292.5,169.5,298.5,182.0,301.5,194.5,301.0,206.5,299.5,218.5,292.0,230.5,275.0,222.5,296.0" stroke="black" stroke-width="2" fill="none" />
<polyline points="225.5,316.0,237.5,308.5,249.0,313.0,260.5,310.0,268.0,299.5,256.0,312.0,265.5,322.5,277.5,318.0,290.0,315.0" stroke="black" stroke-width="2" fill="none" />
<polyline points="284.0,308.5,272.0,308.0" stroke="black" stroke-width="2" fill="none" />
<polyline points="281.0,317.0,298.0,305.0,294.0,301.0,290.0,289.0,279.5,277.0,274.5,265.0,271.5,253.0,264.0,245.5,262.0,235.0" stroke="black" stroke-width="2" fill="none" />
<polyline points="247.0,235.0,235.5,247.5" stroke="black" stroke-width="2" fill="none" />
<polyline points="220.0,251.5,215.5,239.5" stroke="black" stroke-width="2" fill="none" />
<polyline points="203.0,240.5,197.0,252.5,199.5,260.5" stroke="black" stroke-width="2" fill="none" />
<polyline points="196.0,254.5,177.0,256.0,178.5,250.5,197.0,238.5" stroke="black" stroke-width="2" fill="none" />
<polyline points="189.5,235.5,173.0,247.0,185.0,242.5,189.5,244.0,201.0,241.0,214.5,240.0" stroke="black" stroke-width="2" fill="none" />
<polyline points="218.0,220.0,206.0,224.5,204.0,218.5,192.0,224.5" stroke="black" stroke-width="2" fill="none" />
<polyline points="166.5,223.5,145.0,235.5,140.5,248.0,129.5,248.0,126.5,260.5,126.5,273.0,128.0,285.0,133.0,297.0,133.0,308.5,134.5,320.0,140.5,332.0,155.5,344.0,157.0,356.5,160.0,368.5,164.5,379.0,167.5,389.5,173.0,398.5,176.0,401.5,183.5,413.0,186.5,425.0,188.0,437.0,189.5,449.0,185.5,461.0,178.0,473.0,179.0,492.5,177.5,499.5,185.5,506.0,186.0,511.0" stroke="black" stroke-width="2" fill="none" />
<polyline points="205.0,354.0,217.0,348.0,225.5,351.0,237.5,355.5,250.0,355.5,262.0,355.5,274.0,354.0,286.5,348.0,294.0,345.0,306.0,340.5,318.0,340.5,330.0,343.5" stroke="black" stroke-width="2" fill="none" />
<polyline points="309.5,352.5,298.0,352.0" stroke="black" stroke-width="2" fill="none" />
<polyline points="282.5,355.5,282.5,367.5" stroke="black" stroke-width="2" fill="none" />
<polyline points="288.5,359.0,276.5,375.5,264.5,378.0,253.0,378.0,241.0,369.0,235.0,366.5,223.0,363.5,208.0,362.5,211.0,350.5" stroke="black" stroke-width="2" fill="none" />
<polyline points="194.0,337.5,189.5,349.5,191.0,361.0" stroke="black" stroke-width="2" fill="none" />
<polyline points="209.0,323.5,196.5,340.5,193.5,355.0,195.0,343.0,203.0,330.5,213.5,318.5" stroke="black" stroke-width="2" fill="none" />
<polyline points="266.0,278.5,263.0,266.5" stroke="black" stroke-width="2" fill="none" />
<polyline points="234.0,227.5,235.5,240.0,231.0,244.5,232.0,261.5,230.5,273.5,222.5,286.0,206.0,298.0,217.0,299.5" stroke="black" stroke-width="2" fill="none" />
<polyline points="167.0,263.0,155.0,258.5" stroke="black" stroke-width="2" fill="none" />
<polyline points="109.0,201.5,98.5,199.0,94.5,193.5,84.0,194.0,71.5,197.5,59.5,201.0" stroke="black" stroke-width="2" fill="none" />
<polyline points="33.5,190.0,44.0,187.5,31.5,190.0,25.5,202.0,25.0,214.0,20.5,225.5,18.5,237.5,12.5,249.0,7.0,260.5" stroke="black" stroke-width="2" fill="none" />
<polyline points="15.5,253.0,14.0,238.5,15.5,233.0,20.0,226.5" stroke="black" stroke-width="2" fill="none" />
<polyline points="5.0,191.5,17.0,191.5,20.0,199.5,36.5,184.5,48.5,179.5,60.5,187.0,72.5,191.5" stroke="black" stroke-width="2" fill="none" />
<polyline points="26.5,172.0,14.5,170.0,2.5,171.5" stroke="black" stroke-width="2" fill="none" />
<polyline points="3.5,170.0,3.0,182.0,3.0,194.0,3.0,206.0,3.0,218.0,3.0,230.5,3.0,242.5,3.0,254.5,3.0,266.5,9.0,267.0,7.5,274.5,3.0,286.5,4.5,298.5,12.0,313.5,7.0,325.5,7.0,337.5,6.0,349.0,4.5,361.0,3.5,373.0,3.5,384.5,3.5,397.0,3.5,408.5,3.5,420.5,3.5,432.0,3.0,444.0,2.5,456.5,2.5,468.0,3.0,480.0,3.0,492.0,3.0,504.5,9.0,512.0,21.0,511.5,33.0,511.5,45.0,511.5,57.0,511.5,70.5,501.0,82.5,486.0" stroke="black" stroke-width="2" fill="none" />
<polyline points="99.5,365.5,99.0,353.5,85.5,359.5" stroke="black" stroke-width="2" fill="none" />
<polyline points="58.5,330.5,46.5,342.5" stroke="black" stroke-width="2" fill="none" />
<polyline points="26.0,328.0,32.0,319.0" stroke="black" stroke-width="2" fill="none" />
<polyline points="12.5,336.0,18.5,319.5,16.0,319.5,10.0,306.0,17.5,294.5,21.5,282.5,25.0,270.5,26.5,259.0,29.5,247.0,26.5,235.0,31.5,217.0,21.0,206.5,19.0,194.5,5.5,182.5" stroke="black" stroke-width="2" fill="none" />
<polyline points="98.5,155.0,97.0,143.0,95.5,131.0" stroke="black" stroke-width="2" fill="none" />
<polyline points="118.5,125.5,131.0,135.0" stroke="black" stroke-width="2" fill="none" />
<polyline points="143.5,128.0,131.5,110.0" stroke="black" stroke-width="2" fill="none" />
<polyline points="126.5,98.0,138.5,80.5,150.5,76.0,162.5,73.0,174.5,71.0,190.5,65.0" stroke="black" stroke-width="2" fill="none" />
<polyline points="213.0,77.0,225.5,75.5,238.0,77.0,235.0,89.0,237.0,85.0,254.0,77.5,266.0,81.0,278.0,84.0,290.0,90.0,301.5,96.0,313.0,103.0" stroke="black" stroke-width="2" fill="none" />
<polyline points="325.5,95.0,313.0,86.0,300.5,78.5,288.5,78.0,276.5,75.0" stroke="black" stroke-width="2" fill="none" />
<polyline points="282.0,77.5,304.5,89.5,322.5,101.5" stroke="black" stroke-width="2" fill="none" />
<polyline points="332.5,82.0,320.5,75.0" stroke="black" stroke-width="2" fill="none" />
<polyline points="316.0,73.5,328.0,70.5,340.0,78.0" stroke="black" stroke-width="2" fill="none" />
<polyline points="341.5,82.0,326.5,70.0" stroke="black" stroke-width="2" fill="none" />
<polyline points="317.0,58.5,328.5,63.0,345.0,61.5,361.5,74.0,347.5,85.0,355.0,82.0,374.5,73.0,385.0,65.5" stroke="black" stroke-width="2" fill="none" />
<polyline points="391.0,31.0,392.5,28.0,404.0,20.5,401.0,30.5,395.5,33.5,394.0,45.5,395.0,57.5,379.5,69.5,373.5,82.0,348.0,91.0,355.5,86.5,360.0,82.0,376.5,88.5,379.5,84.0,396.0,79.5,414.0,80.5,431.0,67.5" stroke="black" stroke-width="2" fill="none" />
<polyline points="447.0,49.0,435.0,40.0" stroke="black" stroke-width="2" fill="none" />
<polyline points="434.5,39.0,440.5,51.0,430.0,63.0,413.0,75.0,395.0,80.0,392.0,92.0,381.5,92.0,380.0,104.0,387.5,113.0,383.0,119.0,380.0,131.0,383.0,143.0,384.0,155.5,388.5,167.5,397.5,167.5,409.5,167.5,422.0,167.5,428.5,167.5,438.0,154.0,449.0,166.0,461.0,166.0,473.0,166.0,484.5,157.0" stroke="black" stroke-width="2" fill="none" />
<polyline points="468.0,107.0,456.0,106.5,444.0,100.5,432.0,99.5,420.0,100.0,408.0,100.0,394.5,101.5,380.0,109.0,371.5,114.0,372.0,108.0,360.0,103.0" stroke="black" stroke-width="2" fill="none" />
<polyline points="387.5,104.0,384.5,116.0,377.5,125.0,389.5,108.0,392.5,93.0,404.5,84.0,417.0,74.5,429.0,65.5" stroke="black" stroke-width="2" fill="none" />
<polyline points="405.5,34.5,402.5,31.5" stroke="black" stroke-width="2" fill="none" />
<polyline points="388.5,58.5,381.0,58.5,370.5,66.0,360.0,58.5,370.5,49.5,370.0,37.5,369.5,25.5" stroke="black" stroke-width="2" fill="none" />
<polyline points="355.0,23.5,367.0,22.0,379.5,16.5,390.0,7.0,402.0,3.5,413.5,2.5" stroke="black" stroke-width="2" fill="none" />
<polyline points="396.5,1.5,389.0,13.5,377.0,24.5" stroke="black" stroke-width="2" fill="none" />
<polyline points="360.0,67.5,348.0,61.5,336.0,55.5,324.0,51.5" stroke="black" stroke-width="2" fill="none" />
<polyline points="334.5,47.0,323.0,49.5,311.0,60.0" stroke="black" stroke-width="2" fill="none" />
<polyline points="290.0,76.0,312.5,88.0,329.0,99.5" stroke="black" stroke-width="2" fill="none" />
<polyline points="297.0,113.0,285.0,109.5,273.0,107.5,260.5,105.5,248.5,105.5,241.0,109.0,229.5,105.5" stroke="black" stroke-width="2" fill="none" />
<polyline points="206.0,116.0,193.5,117.5,182.0,110.0,170.0,111.5,172.5,110.0,175.5,98.0" stroke="black" stroke-width="2" fill="none" />
<polyline points="167.0,95.5,179.0,99.5,191.0,105.5,200.0,108.0,211.5,103.5,223.0,99.5,235.0,97.5,249.0,90.0,261.0,88.5,273.0,89.0,279.0,92.0,295.5,97.5" stroke="black" stroke-width="2" fill="none" />
<polyline points="291.0,90.0,310.0,102.0" stroke="black" stroke-width="2" fill="none" />
<polyline points="321.5,98.0,310.0,90.5,298.0,81.5,293.0,71.0,281.0,73.0,269.5,77.5,262.0,70.0,257.5,67.0,251.5,78.0,243.0,70.5,231.0,68.5,225.0,59.5,217.0,64.0,206.0,56.0,215.0,44.0,215.0,31.5,207.5,24.0" stroke="black" stroke-width="2" fill="none" />
<polyline points="193.0,15.0,205.5,15.0,217.5,14.0,229.5,12.5,241.5,12.5,253.5,11.0,253.5,26.5,240.0,26.5,232.5,38.5,231.0,62.5,243.0,61.0,255.0,59.5,267.0,52.0,268.0,57.0" stroke="black" stroke-width="2" fill="none" />
<polyline points="258.0,49.0,246.0,49.0" stroke="black" stroke-width="2" fill="none" />
<polyline points="237.0,34.0,248.5,37.0,260.5,42.0,272.5,45.0,285.0,49.0" stroke="black" stroke-width="2" fill="none" />
<polyline points="303.0,45.0,290.5,34.5,295.0,40.5,283.0,33.0,280.0,21.0" stroke="black" stroke-width="2" fill="none" />
<polyline points="296.0,11.5,302.0,23.5,305.5,35.5,299.5,40.0,301.0,52.0,308.5,59.0,318.5,71.0,332.0,83.0" stroke="black" stroke-width="2" fill="none" />
<polyline points="285.0,93.5,304.5,110.0,301.5,107.0,309.5,110.5,321.5,131.5,334.0,139.0,346.0,139.0,358.0,145.0,361.0,156.0,366.5,159.0" stroke="black" stroke-width="2" fill="none" />
<polyline points="352.0,150.0,340.0,144.0" stroke="black" stroke-width="2" fill="none" />
<polyline points="340.5,141.5,349.5,154.0" stroke="black" stroke-width="2" fill="none" />
<polyline points="392.5,115.0,404.5,109.0,421.0,110.5,433.0,109.5" stroke="black" stroke-width="2" fill="none" />
<polyline points="439.0,104.5,440.5,116.5" stroke="black" stroke-width="2" fill="none" />
<polyline points="494.0,73.5,482.0,55.0" stroke="black" stroke-width="2" fill="none" />
<polyline points="483.0,54.0,489.0,66.0,498.0,78.0" stroke="black" stroke-width="2" fill="none" />
<polyline points="463.0,35.5,474.5,19.0,486.5,8.0,498.5,3.5,510.5,4.0" stroke="black" stroke-width="2" fill="none" />
<polyline points="509.0,17.5,485.0,28.0,491.0,28.0,503.5,20.0" stroke="black" stroke-width="2" fill="none" />
<polyline points="511.5,22.0,511.5,34.0,511.5,52.0,503.0,57.5,509.5,69.5,512.5,81.5,511.5,93.5,507.5,105.5,506.0,117.5,504.5,129.0,503.0,141.0,492.5,148.0,498.5,152.5,512.0,151.0" stroke="black" stroke-width="2" fill="none" />
<polyline points="501.0,255.0,489.0,256.5,476.5,254.5,464.5,259.0,452.0,258.5,440.5,257.0" stroke="black" stroke-width="2" fill="none" />
<polyline points="417.5,258.0,423.5,253.0,432.5,253.0,437.0,254.5,448.5,251.5,460.5,255.5,474.0,258.5,486.5,258.0" stroke="black" stroke-width="2" fill="none" />
<polyline points="477.5,281.5,465.5,289.0" stroke="black" stroke-width="2" fill="none" />
<polyline points="489.5,336.5,486.5,341.0,489.5,350.5" stroke="black" stroke-width="2" fill="none" />
<polyline points="380.5,190.0,376.0,177.5,368.5,167.5,349.0,156.0,328.0,144.5,314.5,132.5,299.5,120.0" stroke="black" stroke-width="2" fill="none" />
<polyline points="329.0,37.0,314.0,43.0,329.0,31.0" stroke="black" stroke-width="2" fill="none" />
<polyline points="307.0,5.5,295.0,6.5" stroke="black" stroke-width="2" fill="none" />
<polyline points="254.0,6.0,242.0,8.0,230.5,8.0,218.5,9.5,206.0,11.0,194.0,11.0" stroke="black" stroke-width="2" fill="none" />
<polyline points="190.5,8.5,197.5,20.5,197.5,32.5,199.0,44.5,199.0,56.0,208.0,54.5,226.0,42.5,235.0,30.5,247.5,20.5,261.5,20.5,273.5,22.0,278.0,28.0,288.0,24.5,300.0,38.0,316.5,41.0,328.0,32.0,340.0,31.0" stroke="black" stroke-width="2" fill="none" />
<polyline points="357.0,5.0,345.0,3.5,333.0,3.5,321.0,3.5,309.0,3.5,297.5,4.0,285.5,4.5,273.5,4.5,261.5,4.5,249.0,4.5,237.5,4.5,225.5,4.5,214.0,4.0,202.0,4.0,189.5,3.5,177.5,3.5,165.5,3.0,153.0,3.5,140.5,3.5,129.0,3.5,117.0,3.5,105.5,3.5,93.5,3.5,82.0,4.0,70.0,4.0,58.0,4.0,45.5,4.0,33.5,4.0,21.5,4.0" stroke="black" stroke-width="2" fill="none" />
<polyline points="152.5,73.5,134.5,85.5,127.0,97.5,127.0,109.5,127.0,122.0,133.5,134.0,131.5,143.5,122.5,155.5" stroke="black" stroke-width="2" fill="none" />
<polyline points="132.0,134.5,119.5,121.0" stroke="black" stroke-width="2" fill="none" />
<polyline points="121.5,121.0,126.0,133.0" stroke="black" stroke-width="2" fill="none" />
<polyline points="138.0,96.5,150.0,90.5,162.0,81.0,160.5,90.0,159.0,91.5" stroke="black" stroke-width="2" fill="none" />
<polyline points="173.0,6.5,173.0,18.5,173.0,30.0,173.0,42.0,173.0,53.5,174.5,65.5,161.5,81.5,143.5,83.0,135.0,102.5,142.0,105.5,135.0,120.5,144.0,132.0,136.0,148.5,128.0,165.5,123.5,175.0,122.5,187.0,124.0,199.0,124.0,211.0,122.5,230.0,121.0,242.0,130.0,246.5,134.5,242.0,148.5,233.0,155.5,248.0,170.5,240.5,179.5,240.5,190.5,231.5,196.0,227.5,208.0,232.0,220.0,233.5,220.0,239.5,221.5,251.5" stroke="black" stroke-width="2" fill="none" />
<polyline points="448.5,47.0,451.0,35.0,454.0,23.0" stroke="black" stroke-width="2" fill="none" />
<polyline points="495.0,1.5,480.0,14.0,469.0,26.5,454.0,32.5,454.0,47.0,466.0,44.0,478.0,42.5,489.5,39.5,502.0,36.5" stroke="black" stroke-width="2" fill="none" />
</svg>