<svg xmlns="http://www.w3.org/2000/svg" version="1.1">
<polyline points="94.5,362.5,90.5,370.5,89.0,378.5,89.0,386.5,90.5,394.5,91.5,403.0,93.5,410.5,98.5,418.0,106.5,440.0,115.0,453.5,123.5,462.5,131.5,469.5,140.0,474.0,147.5,478.0,155.5,480.0,163.5,481.0,171.0,479.0,179.5,474.0,178.5,475.5,186.0,467.5,189.5,459.5,193.5,451.5,195.5,443.5,199.0,436.0,201.0,428.0,202.0,420.5,204.0,412.5,205.0,404.5,205.0,396.5,206.0,388.5,206.5,381.0,206.5,373.0,206.5,364.5,207.0,356.5,207.0,348.0,207.0,340.0,207.0,332.0,207.0,324.0,206.0,316.0,205.5,308.0,205.5,300.5,205.5,292.5,204.5,284.5,204.5,276.5,204.5,268.5,203.5,261.0,203.5,252.5,203.0,244.5,202.0,236.0,201.5,228.0,200.5,219.5,200.0,211.5,200.5,203.5,199.0,196.0,198.0,188.0,197.0,180.0,196.0,172.0,194.0,164.0,193.0,155.5,192.5,147.5,190.5,140.0,190.0,132.0,188.5,124.0,186.5,116.0,185.5,108.0,184.0,100.0,185.5,98.0,193.5,116.0,201.5,132.0,210.0,146.0,218.5,160.0,226.5,174.0,235.0,170.0,243.5,163.5,252.0,157.0,260.0,151.0,267.5,146.0,276.0,142.0,283.5,138.0,291.5,134.0,299.5,132.5,307.5,130.5,315.5,130.0,323.5,130.5,331.5,132.0,332.0,135.0,347.0,143.0,356.0,151.0,362.5,159.5,368.5,167.5,374.0,175.5,378.5,184.0,381.5,191.5,384.5,199.0,387.0,207.0,389.0,215.0,391.0,222.5,393.5,230.5,394.5,238.5,395.5,247.0,397.5,255.0,398.0,263.0,399.0,271.0,398.5,279.5,399.5,287.5,399.5,295.5,400.5,303.5,400.5,311.5,400.5,319.5,400.5,327.5,400.5,335.0,399.5,342.5,398.5,350.5,397.5,358.5,392.5,366.5,391.0,370.0,383.0,371.5,375.0,371.0,367.0,368.0,359.0,364.0,351.0,357.5,343.0,351.5,335.0,344.5,327.0,335.5,319.5,324.0,311.5,312.5,303.0,299.5,295.0,287.0,287.0,274.0,278.5,261.0,270.0,247.0,262.0,234.0,253.5,220.0,245.5,207.0,237.5,194.5,230.0,185.0,230.0,185.5,220.0,184.5,212.0,193.0,203.5,201.0,192.5,213.0,184.5,222.0,176.5,231.5,168.5,241.5,160.5,250.5,152.5,260.0,144.5,271.0,136.5,281.0,128.0,291.5,120.0,302.5,112.5,313.5,104.5,324.5,96.5,336.5,89.0,348.5,81.0,360.5,73.0,372.0,65.5,385.0,57.5,398.5,50.0,411.5,42.5,425.5,34.5,439.0" stroke="black" stroke-width="2" fill="none" />
</svg>